<?xml version="1.0" standalone="no"?>
<!DOCTYPE svg PUBLIC "-//W3C//DTD SVG 1.1//EN" "http://www.w3.org/Graphics/SVG/1.1/DTD/svg11.dtd" >
<svg xmlns="http://www.w3.org/2000/svg">
<metadata>
Created by FontForge 20120731 at Mon Dec 21 22:33:23 2015
 By Ads
</metadata>
<defs>
<font id="iconfont" horiz-adv-x="1024" >
  <font-face 
    font-family="iconfont"
    font-weight="500"
    font-stretch="normal"
    units-per-em="1024"
    panose-1="2 0 6 3 0 0 0 0 0 0"
    ascent="896"
    descent="-128"
    x-height="792"
    bbox="-0.166667 -224 2010 896"
    underline-thickness="50"
    underline-position="-100"
    unicode-range="U+0078-E62B"
  />
<missing-glyph horiz-adv-x="374" 
d="M34 0v682h272v-682h-272zM68 34h204v614h-204v-614z" />
    <glyph glyph-name=".notdef" horiz-adv-x="374" 
d="M34 0v682h272v-682h-272zM68 34h204v614h-204v-614z" />
    <glyph glyph-name=".null" horiz-adv-x="0" 
 />
    <glyph glyph-name="nonmarkingreturn" horiz-adv-x="341" 
 />
    <glyph glyph-name="x" unicode="x" horiz-adv-x="1001" 
d="M281 543q-27 -1 -53 -1h-83q-18 0 -36.5 -6t-32.5 -18.5t-23 -32t-9 -45.5v-76h912v41q0 16 -0.5 30t-0.5 18q0 13 -5 29t-17 29.5t-31.5 22.5t-49.5 9h-133v-97h-438v97zM955 310v-52q0 -23 0.5 -52t0.5 -58t-10.5 -47.5t-26 -30t-33 -16t-31.5 -4.5q-14 -1 -29.5 -0.5
t-29.5 0.5h-32l-45 128h-439l-44 -128h-29h-34q-20 0 -45 1q-25 0 -41 9.5t-25.5 23t-13.5 29.5t-4 30v167h911zM163 247q-12 0 -21 -8.5t-9 -21.5t9 -21.5t21 -8.5q13 0 22 8.5t9 21.5t-9 21.5t-22 8.5zM316 123q-8 -26 -14 -48q-5 -19 -10.5 -37t-7.5 -25t-3 -15t1 -14.5
t9.5 -10.5t21.5 -4h37h67h81h80h64h36q23 0 34 12t2 38q-5 13 -9.5 30.5t-9.5 34.5q-5 19 -11 39h-368zM336 498v228q0 11 2.5 23t10 21.5t20.5 15.5t34 6h188q31 0 51.5 -14.5t20.5 -52.5v-227h-327z" />
    <glyph glyph-name="uniE600" unicode="&#xe600;" 
d="M736 812h-448q-40 0 -68 -28t-28 -68v-832q0 -40 28 -68t68 -28h448q40 0 68 28t28 68v832q0 40 -28 68t-68 28zM384 764h256v-32h-256v32zM512 -148q-27 0 -45.5 18.5t-18.5 45.5t18.5 45.5t45.5 18.5t45.5 -18.5t18.5 -45.5t-18.5 -45.5t-45.5 -18.5zM768 44h-512v640
h512v-640z" />
    <glyph glyph-name="uniE601" unicode="&#xe601;" 
d="M512 739q119 0 220 -59t160 -160t59 -220t-59 -220t-160 -160t-220 -59t-220 59t-160 160t-59 220t59 220t160 160t220 59zM585 26v109q0 8 -5 13.5t-13 5.5h-109q-8 0 -13.5 -6t-5.5 -13v-109q0 -7 5.5 -13t13.5 -6h109q8 0 13 5.5t5 13.5zM584 223l10 355q0 7 -5 10
q-6 5 -14 5h-126q-8 0 -14 -5q-5 -3 -5 -10l9 -355q0 -6 6 -10t14 -4h106q8 0 13 4t6 10z" />
    <glyph glyph-name="uniE602" unicode="&#xe602;" 
d="M64 -148l104 45l-59 61zM242 189l169 -172l465 473l-169 172zM841 748q-31 0 -57.5 -15t-42.5 -40l165 -168q16 11 28.5 26.5t19 35t6.5 40.5q0 19 -6 38t-17 33.5t-25.5 26t-33 17.5t-37.5 6zM124 -11l75 -72l179 69l-163 165z" />
    <glyph glyph-name="uniE603" unicode="&#xe603;" horiz-adv-x="1171" 
d="M658 300q0 59 -23 113t-62.5 93.5t-93.5 63t-113.5 23.5t-113.5 -23.5t-93.5 -63t-62.5 -93.5t-23 -113t23 -113t62.5 -93.5t93.5 -63t113.5 -23.5t113.5 23.5t93.5 63t62.5 93.5t23 113zM1097 300q0 59 -23 113t-62.5 93.5t-93.5 63t-113 23.5h-221q68 -52 107.5 -128.5
t39.5 -164.5t-39.5 -164.5t-107.5 -128.5h221q59 0 113 23.5t93.5 63t62.5 93.5t23 113zM1170 300q0 -74 -29 -142t-78 -116.5t-116.5 -78t-141.5 -29.5h-439q-75 0 -142.5 29.5t-116.5 78t-78 116.5t-29 142t29 142t78 116.5t116.5 78t142.5 29.5h439q74 0 141.5 -29.5
t116.5 -78t78 -116.5t29 -142z" />
    <glyph glyph-name="uniE604" unicode="&#xe604;" horiz-adv-x="1171" 
d="M0 300q0 74 29 142t78 116.5t116.5 78t142.5 29.5h439q74 0 141.5 -29.5t116.5 -78t78 -116.5t29 -142t-29 -142t-78 -116.5t-116.5 -78t-141.5 -29.5h-439q-75 0 -142.5 29.5t-116.5 78t-78 116.5t-29 142zM804.5 7q59.5 0 113.5 23.5t93.5 63t62.5 93.5t23 113t-23 113
t-62.5 93.5t-93.5 63t-113.5 23.5t-113.5 -23.5t-93.5 -63t-62.5 -93.5t-23 -113t23 -113t62.5 -93.5t93.5 -63t113.5 -23.5z" />
    <glyph glyph-name="uniE605" unicode="&#xe605;" 
d="M914 9q0 -68 -41.5 -108t-110.5 -40h-500q-69 0 -110.5 40t-41.5 108q0 30 2 59t8 62.5t15 62t24.5 55.5t35.5 46.5t49 31t63 11.5q6 0 24.5 -12.5t42.5 -27.5t62 -27.5t76 -12.5t76 12.5t62 27.5t42.5 27.5t24.5 12.5q34 0 63 -11.5t49 -31t35.5 -46.5t24.5 -55.5
t15 -62t8 -62.5t2 -59zM731 519.5q0 -90.5 -64 -155t-155 -64.5t-155 64.5t-64 155t64 155t155 64.5t155 -64.5t64 -155z" />
    <glyph glyph-name="uniE606" unicode="&#xe606;" 
d="M694 462h192v192h-192v-192zM733 616h115v-115h-115v115zM153 462h196v192h-196v-192zM192 616h118v-115h-118v115zM636 405h97v-116h-97v116zM733 289h115v-115h-115v115zM192 78h115v-116h-115v116zM694 654h192v-192h-192v192zM310 174h-231v-327h327v327v115h-96
v-115zM349 -76h-193v192h193v-192zM406 712h-327v-307v-116h116v116h211h116v96h-116v211zM349 462h-193v192h193v-192zM637 712h-115v-96h115v-211h96v-116h115v116h97v307h-308zM887 462h-192v192h192v-192zM522 -38h115v-115h-115v115zM522 405h115v-116h-115v116z
M829 174h-96v115h-96v-115h-115v-96h211v-116v-115h212v115h-97v116h97v96v115h-97v-115h-19z" />
    <glyph glyph-name="uniE607" unicode="&#xe607;" 
d="M887 191q6 23 8.5 69.5t0.5 75.5q-3 37 -13.5 72t-27.5 64.5t-39.5 55.5t-49 47t-56.5 38.5t-62 29.5t-66 19.5t-67.5 10t-66.5 0t-63 -10.5q58 -20 113 -56.5t99.5 -84t71.5 -108t27 -122.5q0 -15 -1 -31t-3 -31l-166 17l214 -248l277 176zM136 378q-6 -23 -9.5 -69.5
t-2.5 -75.5q2 -47 16.5 -89.5t38 -77t55.5 -64.5t69 -51.5t78 -36.5t82.5 -22.5t83 -7t80.5 9.5q-58 22 -112 59.5t-97.5 86t-68.5 110t-24 123.5q0 15 1.5 31t4.5 31l165 -22l-208 254l-281 -169z" />
    <glyph glyph-name="uniE608" unicode="&#xe608;" 
d="M934 601q-7 7 -15 11.5t-16.5 7t-18 2.5t-18 -2.5t-16.5 -7t-15 -11.5l-475 -492l-147 152q-8 9 -18 14t-20.5 6.5t-21 0t-20.5 -6.5t-18 -14q-21 -21 -21 -50.5t21 -51.5l197 -203q13 -14 31 -19t35.5 0t31.5 18v1l1 1l523 542q13 14 17.5 32.5t0 37t-17.5 32.5z" />
    <glyph glyph-name="uniE609" unicode="&#xe609;" 
d="M993 188q0 100 -86 171t-207 71q-47 0 -92 -12.5t-81 -34.5t-63 -52t-41.5 -67t-14.5 -76q0 -101 85.5 -172t206.5 -71q55 0 106 17l92 -51l-24 82h1q55 34 86.5 85t31.5 110zM595 233q-17 0 -28.5 11.5t-11.5 27.5q0 11 5.5 20t14.5 14.5t19.5 5.5t19.5 -5.5t14.5 -14.5
t5.5 -20q0 -7 -3 -14.5t-8.5 -12.5t-12.5 -8.5t-15 -3.5zM792.5 233q-16.5 0 -27.5 11.5t-11 27.5q0 7 1.5 13t5.5 10.5t8.5 8.5t10.5 6t13 2q16 0 27.5 -11.5t11.5 -28t-11.5 -28t-28 -11.5zM690 440h14q-15 109 -116 181q-94 68 -220 68q-91 0 -169 -37.5t-123 -102
t-45 -140.5q0 -67 36.5 -126t99.5 -98h1l-28 -94l106 58q60 -19 122 -19q20 0 40 2q-11 32 -11 66q0 100 86 171t207 71zM490.5 553q18.5 0 31.5 -13.5t13 -32.5q0 -12 -6 -22.5t-16.5 -16.5t-22.5 -6q-18 0 -31.5 13.5t-13.5 32t13.5 32t32 13.5zM262 462q-6 0 -12 1.5
t-11 4.5t-9 7.5t-7 9.5t-4.5 10.5t-1.5 11.5q0 19 13 32.5t32 13.5t32 -13.5t13 -32.5q0 -30 -28 -41q-9 -4 -17 -4z" />
    <glyph glyph-name="uniE60A" unicode="&#xe60a;" 
d="M195 2l-29 -25q-73 -72 -1 -109q66 -33 250 -29q11 0 44.5 19t50.5 19q25 0 45.5 -10t28 -18.5t7.5 -10.5l101 6q195 18 189 76q-3 30 -66 70q11 28 22 50.5t17 31.5l6 9l39 -20q81 -35 77.5 33.5t-95.5 234.5l-3 30q-5 42 -8 63t-9 58.5t-13 57t-17.5 50.5t-24.5 48
t-33 40t-43.5 35.5t-55 25.5t-69 19.5t-84.5 8.5l-50 2q-157 -6 -247 -119q-88 -110 -94 -310q-154 -285 -62 -282q36 2 88 39z" />
    <glyph glyph-name="uniE60B" unicode="&#xe60b;" 
d="M845 346h-4q-7 2 -11 8t-2 14q17 75 -14 104q-15 15 -41.5 19t-40.5 2t-19 -4q-8 -2 -14 2t-8 11.5t2 13.5t11 8q2 0 5 1t11 2t16 1.5t19 0.5t21.5 -2t21.5 -5t21.5 -9.5t19.5 -14.5q45 -44 23 -138q-1 -6 -6 -10t-11 -4zM962 297h-4q-10 2 -16 10t-4 18q30 182 -48 252
q-23 20 -55 30t-58 11.5t-56.5 -1.5t-39 -5t-16.5 -5q-10 -2 -18.5 2.5t-11.5 14.5q-1 6 0 12t5.5 10.5t11.5 6.5q5 2 15.5 4t34.5 6t50 4t55.5 -3.5t60 -16.5t53.5 -34q99 -88 64 -296q-1 -9 -8 -14.5t-15 -5.5zM745 297l10 38q19 97 -64 111q-62 10 -177 -31
q3 38 -1.5 67.5t-19.5 49.5t-38.5 27.5t-60.5 -1.5t-84 -36q-6 -4 -17.5 -12.5t-43.5 -34.5t-60.5 -53t-62 -67t-55.5 -78t-34 -83.5t-4.5 -87t41.5 -85t95 -79.5l69 -23q235 -65 411 5q137 54 216 188q13 39 7.5 70t-21 53t-37 36t-40 20.5t-29.5 5.5zM436 -57.5
q-78 -8.5 -147 9t-112.5 57t-49.5 91.5q-9 79 68.5 144.5t196.5 78.5q58 7 113 -2t96.5 -30t68 -53.5t31.5 -71.5q5 -52 -28 -100t-96 -81.5t-141 -42zM550 132q-5 54 -53.5 88t-112.5 28q-42 -4 -76 -24.5t-52 -52.5t-15 -67q5 -54 53.5 -88t112.5 -28.5t106 48t37 96.5z
M348 40q-10 0 -19 3.5t-15 9.5t-10 14.5t-4 17.5q0 18 14 31t34 13t34 -13t14 -31q0 -12 -6.5 -22.5t-17.5 -16.5t-24 -6zM430.5 115q-8.5 0 -15 6.5t-6.5 15.5t6.5 15t15 6t15 -6t6.5 -15t-6.5 -15.5t-15 -6.5z" />
    <glyph glyph-name="uniE60C" unicode="&#xe60c;" 
d="M512 812q-138 0 -256 -69t-187 -187t-69 -256t69 -256t187 -187t256 -69t256 69t187 187t69 256t-69 256t-187 187t-256 69zM512 -148q-121 0 -224.5 60t-163.5 163.5t-60 224.5t60 224.5t163.5 163.5t224.5 60t224.5 -60t163.5 -163.5t60 -224.5t-60 -224.5
t-163.5 -163.5t-224.5 -60zM794 44q-12 -5 -24.5 1t-17.5 18q-26 79 -92 126t-148 47q-54 0 -102.5 -22t-85 -61t-55.5 -90q-5 -12 -17.5 -18t-24.5 -1t-18 17.5t-1 24.5q36 96 119.5 155t184.5 59q40 0 78.5 -10t72.5 -28.5t63 -45t51.5 -59.5t35.5 -71q5 -12 -1 -24.5
t-18 -17.5zM352 428zM288 428q0 26 19 45t45 19t45 -19t19 -45t-19 -45t-45 -19t-45 19t-19 45zM672 428zM608 428q0 26 19 45t45 19t45 -19t19 -45t-19 -45t-45 -19t-45 19t-19 45z" />
    <glyph glyph-name="uniE60D" unicode="&#xe60d;" 
d="M464.5 812q-94.5 0 -180.5 -37t-148 -99t-99 -148t-37 -180q0 -76 23.5 -147t66.5 -128t100 -100t128 -66.5t146 -23.5q95 0 181 37t148 99t99 148t37 180.5t-37 180.5t-99 148t-148 99t-180.5 37zM464 -1q-94 0 -174.5 47t-127 127t-46.5 174.5t46.5 175t127 127
t175 46.5t174.5 -46.5t127 -127t47 -174.5q0 -141 -98 -242q-97 -101 -237 -106q-7 -1 -14 -1zM1020 -127l-114 114q-3 3 -8 3t-11.5 -3.5t-12.5 -8.5l-41 -41q-8 -9 -11 -18.5t2 -13.5l114 -114q3 -3 8 -3t11.5 3.5t12.5 8.5l41 41q8 9 10.5 18.5t-1.5 13.5z" />
    <glyph glyph-name="uniE60E" unicode="&#xe60e;" 
d="M0 812h1024v-1024h-1024v1024zM772 69q-64 24 -99 46t-50.5 50.5t-15.5 70.5q0 16 6.5 27.5t15 18.5t18.5 27t15 50q1 6 3.5 10t5 6.5t5.5 4t6.5 3t7 4t6.5 7t5.5 11t4.5 17t3 24.5q0 33 -18 42q1 6 2.5 15.5t5 33t5.5 41.5q1 16 -2.5 36.5t-17 45t-34.5 44.5t-59.5 33.5
t-88 13.5t-88 -13.5t-59.5 -33.5t-34.5 -44.5t-17 -45t-2.5 -36.5q1 -11 3 -24.5t3.5 -24.5t3 -20.5t2.5 -14.5l1 -6h-1q-1 -1 -3 -2l-3 -4q-2 -2 -4 -5.5t-3.5 -7.5t-2.5 -10t-1 -13q1 -24 6 -38t11 -19t12 -7.5t11 -7.5t7 -15q5 -30 15 -50t18.5 -27t15 -18.5t6.5 -27.5
q0 -42 -15.5 -70.5t-50.5 -50.5t-99 -46q-96 -35 -151.5 -67.5t-55.5 -56.5v-106h477h476v106q0 24 -55.5 56.5t-151.5 67.5z" />
    <glyph glyph-name="uniE60F" unicode="&#xe60f;" 
d="M511 812q-104 0 -198.5 -40.5t-163 -109t-109 -163t-40.5 -198.5q0 -105 40.5 -200t109 -163.5t163 -109t198.5 -40.5t199 40.5t163.5 109t109.5 164t41 199.5q0 83 -26 161t-73.5 141t-110.5 110t-141 73t-162 26zM805 109h-586v345l292 -216l293 216v-345h1zM511 272
l-292 217h585z" />
    <glyph glyph-name="uniE610" unicode="&#xe610;" 
d="M503 768q-92 0 -176 -36t-144.5 -96.5t-96 -144t-35.5 -176t35.5 -176t96 -144t144.5 -96.5t176 -36t176 36t144.5 96.5t96.5 144t36 176t-36 176t-96.5 144t-144.5 96.5t-176 36zM707 106q0 -7 -3.5 -13.5t-10 -10t-14.5 -3.5h-334q-12 0 -20 8t-8 19v224q0 11 8 19.5
t20 8.5h28v55q0 58 40.5 99t98.5 41t98.5 -41t40.5 -99v-55h28q12 0 20 -8.5t8 -19.5v-224zM512 497q-35 0 -59.5 -24.5t-24.5 -59.5v-55h168v55q0 35 -24.5 59.5t-59.5 24.5z" />
    <glyph glyph-name="uniE611" unicode="&#xe611;" 
d="M512 808q-187 0 -329 -122q-136 -116 -170 -290q-9 -48 -9 -96q0 -103 40.5 -197t108.5 -162t162 -108.5t197 -40.5t197 40.5t162 108.5t108.5 162t40.5 197t-40.5 197t-108.5 162t-162 108.5t-197 40.5zM512 -157q-93 0 -177.5 36t-146 97.5t-97.5 146t-36 177.5
t36 177.5t97.5 146t146 97.5t177.5 36t177.5 -36t146 -97.5t97.5 -146t36 -177.5q0 -62 -16.5 -121.5t-46 -109.5t-71.5 -92t-92 -71.5t-109.5 -46t-121.5 -16.5zM595 242q27 12 49 31t37.5 42.5t24.5 52t9 59.5q0 84 -59.5 143.5t-143.5 59.5t-143.5 -59.5t-59.5 -143.5
q0 -41 15 -77.5t42 -64t63 -43.5q-95 -16 -161 -50.5t-121 -101.5q14 -24 30 -44q31 40 66.5 69t77 47.5t88.5 27t103 8.5q112 0 193 -36t142 -116q16 20 30 44q-37 45 -79.5 75.5t-90.5 48t-112 28.5zM360 427q0 63 44.5 107.5t107.5 44.5t107.5 -44.5t44.5 -107.5
q0 -14 -2.5 -27.5t-7 -26t-11 -23.5t-15 -21t-18.5 -18.5t-21.5 -15t-23.5 -11t-25.5 -7t-27.5 -2.5q-41 0 -76.5 20t-55.5 55.5t-20 76.5z" />
    <glyph glyph-name="uniE612" unicode="&#xe612;" 
d="M612 412q0 8 -1.5 16.5t-4 16t-6 14.5t-8 13t-10 11.5t-12 9.5t-13.5 7.5t-14.5 6t-16 4t-16.5 1.5q-29 0 -51 -13t-34 -36t-12 -51v-60h199v60zM657 292q0 4 -2 7.5t-5.5 5.5t-7.5 2h-29h-203h-30q-6 0 -10 -4.5t-4 -10.5v-100q0 -43 30 -73.5t73 -30.5h84
q43 0 73.5 30.5t30.5 73.5v60v40zM531 178q-8 -21 -22 -21q-8 0 -12.5 5.5t-8.5 15.5q-4 12 -7.5 24t-3.5 19q0 13 9.5 22.5t23 9.5t22.5 -9.5t9 -22.5q0 -14 -10 -43zM512 812q-104 0 -199 -40.5t-163.5 -109t-109 -163.5t-40.5 -199t40.5 -199t109 -163.5t163.5 -109
t199 -40.5t199 40.5t163.5 109t109 163.5t40.5 199q0 188 -122 332q-116 136 -292 171q-49 9 -98 9zM704 188q0 -60 -42 -102t-102 -42h-96q-60 0 -102 42t-42 102v112q0 10 4 19t10 15t15 10t19 4v64q0 60 42 102t102 42t102 -42t42 -102v-64q10 0 18.5 -4t15 -10t10.5 -15
t4 -19v-112z" />
    <glyph glyph-name="uniE613" unicode="&#xe613;" 
d="M299 346v121q0 88 62.5 150.5t150.5 62.5q58 0 107 -28.5t77.5 -78t28.5 -106.5h40q0 50 -19 96.5t-55 82.5q-74 74 -179 74t-179 -74q-24 -24 -40.5 -53t-25 -61t-8.5 -65v-121h-54v-466h614v466h-520zM779 -80h-534v386h534v-386zM492 215h40v-204h-40v204z" />
    <glyph glyph-name="uniE614" unicode="&#xe614;" 
d="M765 345v122q0 51 -19 97t-55 82q-74 74 -179 74q-51 0 -97 -19t-82 -55q-74 -74 -74 -179v-122h-54v-465h614v465h-54zM299 467q0 88 62.5 150.5t150.5 62.5q28 0 55 -7t51.5 -21t44.5 -34q62 -63 62 -151v-122h-426v122zM779 -80h-534v385h534v-385zM492 215h40v-203
h-40v203z" />
    <glyph glyph-name="uniE615" unicode="&#xe615;" 
d="M512 235q-22 0 -37.5 -15.5t-15.5 -37.5q0 -30 27 -46v-51q0 -6 2.5 -10.5t6 -8t8.5 -5.5t11 -2q11 0 19 8t8 18v51q27 15 27 46q-1 11 -6 20.5t-12.5 17t-17 11.5t-20.5 4zM512 800q-212 0 -362 -150t-150 -362t150 -362t362 -150t362 150t150 362t-150 362t-362 150z
M742 32q0 -11 -7.5 -18.5t-19.5 -7.5h-406q-11 0 -19 8t-8 18v230q0 12 7.5 19t19.5 7h44v123q0 65 47 112t112 47t112 -47t47 -112q0 -11 -8 -18.5t-20 -7.5q-11 0 -19 8t-8 18q0 43 -31 74.5t-74.5 31.5t-75 -31.5t-31.5 -74.5v-123h311q11 0 19 -7.5t8 -18.5v-230z" />
    <glyph glyph-name="uniE616" unicode="&#xe616;" 
d="M0 812v-1024h1024v1024h-1024zM587 -58h-144v139h144v-139zM726 348q-13 -18 -35 -38t-54 -43q-11 -8 -20 -16t-15.5 -15t-9.5 -13q-8 -14 -11.5 -33t-3.5 -43h-130q0 77 16 111q19 43 84 89q31 21 46.5 45.5t15.5 51.5q0 54 -32 78q-25 20 -64 20q-45 0 -72.5 -25
t-34.5 -88l-138 -1q0 117 77 179q64 51 159 51q59 0 106 -14.5t81 -43.5q33 -27 49 -65t16 -87q0 -57 -30 -100z" />
    <glyph glyph-name="uniE617" unicode="&#xe617;" horiz-adv-x="1110" 
d="M158 -53l896 713l56 -70l-896 -713zM317 178v313h-117q-30 0 -55.5 -12t-43 -33t-27 -50t-9.5 -62v-66q0 -35 9 -64t26 -49.5t42.5 -32t57.5 -11.5h25zM504 2l324 -212q28 0 48 16.5t20 40.5v458zM895 750q0 16 -9.5 29.5t-26 21.5t-35.5 8l-369 -236q-19 0 -35.5 -7.5
t-26 -21.5t-9.5 -30v-268l511 400v104z" />
    <glyph glyph-name="uniE618" unicode="&#xe618;" 
d="M843 -84q0 -28 -27 -48t-65 -20l-392 273q-40 0 -77.5 20.5t-37.5 47.5v281q0 27 37.5 47.5t77.5 20.5l392 273q19 0 36 -5.5t29 -14.5t19.5 -22t7.5 -27v-826z" />
    <glyph glyph-name="uniE619" unicode="&#xe619;" 
d="M512 812q-139 0 -257 -68.5t-186.5 -186.5t-68.5 -257t68.5 -257t186.5 -186.5t257 -68.5t257 68.5t186.5 186.5t68.5 257t-68.5 257t-186.5 186.5t-257 68.5zM849 362l-116 -88q-17 -13 -25.5 -39t-1.5 -47l44 -138q8 -31 4 -45.5t-15 -22.5q-28 -20 -69 9l-114 84
q-12 8 -28 11t-32 0t-28 -12l-114 -84q-13 -9 -24.5 -13.5t-20.5 -4.5q-13 0 -24 8q-27 20 -11 68l44 139q6 21 -2 46t-25 38l-116 90q-17 12 -25 27t-6.5 24.5t1.5 16.5q13 37 61 37h142q24 0 44.5 12.5t26.5 31.5l44 133q15 46 49 46q14 0 27.5 -11t22.5 -38l66 -203
q4 -11 -1.5 -21.5t-15.5 -14.5q-6 -2 -11.5 -1t-10 3t-8.5 6.5t-5 9.5l-64 194l-40 -120q-12 -37 -47 -60t-77 -23h-137l113 -91q32 -24 45.5 -67t1.5 -81l-41 -128l106 77q32 23 76 23t76 -23l106 -77l-41 128q-7 26 -4 54t16.5 54t34.5 42l113 89h-97q-11 0 -19.5 8
t-8.5 20q0 7 4 13.5t10.5 10.5t13.5 4h102q48 0 61 -37q11 -36 -30 -67z" />
    <glyph glyph-name="uniE61A" unicode="&#xe61a;" 
d="M514 790q-102 0 -195 -39.5t-160.5 -107t-107 -160.5t-39.5 -195t39.5 -195t107 -160.5t160.5 -107t195 -39.5t195 39.5t160.5 107t107 160.5t39.5 195q0 59 -13 115t-38 105.5t-59 93.5t-78 78t-93 59t-105.5 38t-115.5 13zM514 -168q-93 0 -177.5 36t-145.5 97
t-97 145.5t-36 177.5t36 177.5t97 145.5t145.5 97t177.5 36t177.5 -36t145.5 -97t97 -145.5t36 -177.5q0 -74 -23 -144t-65 -126t-98 -98t-126 -65t-144 -23zM537 539h-46v-228h-228v-46h228v-228h46v228h228v46h-228v228v0z" />
    <glyph glyph-name="uniE61B" unicode="&#xe61b;" 
d="M606 747q-71 0 -135 -27.5t-110.5 -74t-74 -111t-27.5 -135.5q0 -127 82 -224l-111 -111l-117 118q-8 8 -19.5 8t-19.5 -8t-8 -19.5t8 -19.5l117 -119l-118 -119q-8 -8 -8 -19.5t8 -19.5t19.5 -8t19.5 8l118 119l119 -120q8 -8 19.5 -8t19.5 8t8 19.5t-8 19.5l-118 120
l110 111q98 -83 226 -83q71 0 135 27.5t111 74t74.5 111t27.5 134.5q0 95 -46.5 175t-126.5 126.5t-175 46.5zM606 107q-79 0 -146.5 39t-106.5 106.5t-39 146.5q0 121 85.5 207t206.5 86q80 0 147 -39.5t106 -106.5t39 -147q0 -123 -88 -209q-85 -83 -204 -83z" />
    <glyph glyph-name="uniE61C" unicode="&#xe61c;" 
d="M313 164h1l1 1v1l350 350q4 3 5.5 7.5t1.5 9t-1.5 9t-5.5 7.5q-4 5 -10 6.5t-12.5 0t-10.5 -6.5l-350 -350l-2 -1v-1h-1l-4 -4q-2 -2 -4 -5q-21 -26 -27.5 -58.5t3.5 -64t34 -55.5q10 -11 23 -19t26.5 -13t27.5 -6.5t28.5 -0.5t28 5t26.5 11.5t24 18.5h1l403 403
q60 60 60 145q0 27 -6.5 53t-20 49t-32.5 42q-60 60 -145 60t-145 -60l-200 -200l-138 -139l-63 -62v-1q-78 -79 -77 -190.5t79 -189.5q79 -79 192 -79q108 0 186 74q1 0 1 1q1 0 1 0.5t1 0.5l2 2l351 351l1 1q0 1 1 1q7 6 7 16t-6.5 17t-16.5 7.5t-17 -6.5l-3 -3l-350 -350
l-3 -2q-72 -70 -173 -62q-83 7 -140 64q-65 65 -65.5 157t63.5 157q376 376 401 402q22 22 51.5 34t59.5 12t59 -12t52 -34q22 -22 34 -50.5t12 -60.5q0 -65 -46 -111l-403 -403q-26 -23 -60 -22t-58.5 25.5t-25.5 58.5t23 60q1 1 1 2z" />
    <glyph glyph-name="uniE61D" unicode="&#xe61d;" 
d="M925 403v-516h-826v826h619v48h-623q-12 0 -22.5 -6t-16 -16t-5.5 -22v-834q0 -18 12.5 -31t31.5 -13h834q19 0 31.5 13t12.5 31v520h-48zM715 475q0 3 -0.5 6t-1.5 6t-2.5 5.5t-4.5 4.5q-8 9 -21 9t-22 -9l-152 -153l-153 153q-4 4 -10 6.5t-12 2.5t-11.5 -2.5t-10 -6.5
t-6.5 -9.5t-2 -12.5q0 -12 9 -21l152 -153l-152 -152q-6 -6 -8 -14t0 -16t8 -14q9 -9 21 -9q4 0 8 1t7.5 3t6.5 5l153 153l152 -153q9 -9 22 -9q6 0 11.5 2.5t10 7t6.5 10t2 11.5q0 13 -9 22l-152 152l152 153q9 9 9 21z" />
    <glyph glyph-name="uniE61E" unicode="&#xe61e;" 
d="M233 246v-145l35 -32q124 -103 260 -103q170 0 268 102q18 19 27 33v157l-255 -149q-29 -17 -60 -2zM534 418q-16 0 -31 2t-28 7t-22 11l-306 -106l364 -182q30 -15 59 2l423 247q32 19 31 56t-34 54l-439 219q-30 15 -59 -2l-423 -247q-32 -18 -31 -55.5t34 -53.5
l-1 -224q-8 -3 -15 -8.5t-12 -12t-7.5 -15t-2.5 -17.5q0 -28 22 -45q-6 -41 -36 -69q-22 -20 -20 -49.5t26 -46.5l8 -6q23 -16 50 -10q13 3 23.5 11t16.5 19q34 61 6 156q16 16 16 40q0 9 -2.5 17.5t-7.5 15t-12 12t-15 8.5l1 214l332 115q2 6 6 12.5t8 10.5l4 4
q-1 -2 -0.5 -7t4.5 -12.5t11 -14.5t21.5 -12t34.5 -5q32 0 52.5 10.5t20.5 29.5q0 3 -1 7l-2 8q18 -22 18 -43q0 -14 -11.5 -24.5t-30.5 -15.5t-43 -5z" />
    <glyph glyph-name="uniE61F" unicode="&#xe61f;" horiz-adv-x="1025" 
d="M992 189h-2h-9q-3 0 -7.5 1.5t-6.5 4.5l-421 473q-15 16 -35 16q-21 0 -35 -16l-422 -470q-8 -9 -21 -9.5t-21.5 7.5t-9 19.5t6.5 20.5l424 478q37 42 78 42q15 0 30 -4t29 -12.5t24 -19.5l423 -480q5 -6 5.5 -14t-2.5 -16.5t-9 -13.5q-8 -7 -19 -7zM847 243v-283
q0 -23 -15 -38t-39 -15h-110v223q0 47 -34.5 81.5t-81.5 34.5h-113q-47 0 -81.5 -34.5t-34.5 -81.5v-224l-110 1q-23 0 -38 15t-15 38v283h-62v-283q0 -46 34.5 -81t80.5 -35h113h57v60v226q0 23 16.5 39.5t39.5 16.5h113q24 0 40.5 -16.5t16.5 -39.5v-226v-60h56h113
q47 0 81.5 35t34.5 81v283h-62z" />
    <glyph glyph-name="uniE620" unicode="&#xe620;" horiz-adv-x="1114" 
d="M1087 838l1 11q0 4 -0.5 6.5t-1.5 5t-3 4.5q-7 6 -16 6h-11h-1l-279 1q-9 0 -15.5 -7t-7.5 -16v-16q1 -5 3.5 -9.5t6 -7t7.5 -4t9 -1.5l205 -1l-244 -242q-106 89 -244 89q-104 0 -191.5 -51t-138.5 -138.5t-51 -190.5q0 -62 19.5 -120t54.5 -105t82 -82t105 -54.5
t120 -19.5q103 0 190.5 51t138.5 138.5t51 191.5q0 141 -93 249l245 242l-1 -208q0 -9 6 -16t15 -7h16q10 0 16.5 5.5t6.5 14.5l1 281h-1v0zM816 277q0 -87 -43 -161t-116.5 -116.5t-160.5 -42.5t-161 42.5t-116.5 116.5t-42.5 161t42.5 160.5t116.5 116.5t161 43
q65 0 124 -25.5t102 -68.5t68.5 -102t25.5 -124zM816 277z" />
    <glyph glyph-name="uniE621" unicode="&#xe621;" 
d="M512 686l131 -241l270 -50l-189 -199l36 -272l-248 118l-248 -118l36 272l-189 199l270 50zM512 624l-112 -203l-230 -43l161 -168l-30 -230l211 100l211 -100l-30 230l161 168l-230 43z" />
    <glyph glyph-name="uniE622" unicode="&#xe622;" horiz-adv-x="1030" 
d="M515 -137l-1 4h-2l2 -5v0v-1h1h1q4 -2 7 2.5t0 7.5q-6 1 -8 -8zM337 -187q-3 -1 -5.5 -0.5t-4 0.5t-2.5 -3q7 1 21.5 -5.5t24.5 -6.5q-3 7 -17 9.5t-17 5.5zM43 147q4 0 4 1v10q0 4 -0.5 8t-2.5 7.5t-6 6.5q3 1 5 -1.5t6 -1.5q0 14 -14 10q0 2 -3.5 6.5t-2.5 10.5h-4
q0 -57 21 -108q4 1 5.5 4.5t1.5 8t-1.5 9.5t-3.5 10t-3.5 10.5t-1.5 8.5zM645 -123q1 -2 4.5 -4t4.5 0q-1 0 -3 2q-3 2 -6 2zM319 -184q-2 2 -5 5.5t-4 4.5q-1 0 -4 1l-6 1q-11 8 -44 27t-48 34q-12 3 -29.5 21.5t-32.5 19.5q4 -5 10.5 -14t12.5 -15.5t13 -11.5q1 -1 6 -2.5
t7 -2.5q2 -2 5 -4.5t5 -5t5 -5.5t5.5 -4.5t8 -4.5t6.5 -4q3 -1 13.5 -7.5t15 -9t14 -7.5t15.5 -7.5t14.5 -5.5t14.5 -4zM112 726q21 -12 42 0t23 32q-1 14 -9 23t-19 11t-22 -0.5t-19.5 -11t-10.5 -20.5q-1 -7 3 -18.5t12 -15.5zM29 555q5 6 -5 11q-11 6 -12 -4q5 -8 17 -7z
M62 74q0 2 -0.5 5t-2 5.5t-3.5 5.5t-3 6q0 -1 -6 -2q2 -4 4 -10.5t3 -12t3.5 -11t5.5 -9.5q4 -17 23 -46t22 -34q5 -4 14 -14t15 -14q-1 6 -7 13t-6 14q-17 15 -36 54t-26 50zM111 191h6q-1 2 0 3.5t1 2.5q-2 0 -4 1q-1 -2 1 -3q1 -1 2 -1q-1 -1 -3 -1zM97 242q3 2 1 6
q-1 3 -4 3q1 -1 0.5 -3.5t0 -4t2.5 -1.5zM1015 303q6 8 9.5 18t4.5 18.5t-0.5 22.5t-3 21.5t-5 23.5t-4.5 21q-3 16 -13.5 45t-12.5 41q-2 2 -6 4t-5 4q-22 81 -96 147q-19 -4 -20 -4q-4 6 -3 8q-5 -1 -9.5 -0.5t-4.5 6.5q11 -1 24 -3q-4 5 -3 11q-31 32 -73.5 57t-92 41
t-101.5 21q-55 11 -136 1q-6 0 -24.5 -6t-30.5 -5q-9 -3 -23 -8t-24.5 -9t-22.5 -9t-22.5 -10.5t-19.5 -11.5q-2 0 -3.5 0.5t-2.5 -0.5q-7 -6 -19.5 -12.5t-22.5 -13.5t-17 -14q-15 -9 -30 -21.5t-31.5 -27.5t-27.5 -23q0 -2 1 -4.5t-1 -2.5q-6 -3 -10.5 -7.5t-6.5 -8.5
t-5 -11t-6 -11q2 0 6 -7q-7 -6 -12.5 -22t-12.5 -27t-21 -12q18 -19 -13 -51q2 -2 2 -4.5t-1 -4t-3 -3.5l-3 -3q1 -5 -1 -13.5t0 -12.5q-2 -4 -14.5 -20t-9.5 -29q-2 0 -4.5 1t-4.5 1q-1 -5 -5 -6q-2 -9 -2.5 -22t-0.5 -20.5t0.5 -27t0.5 -23.5q0 -5 1 -11t2 -10.5t2 -10.5
t1 -11q0 -3 -1 -12t1 -14.5t7 -9.5q2 0 1.5 4.5t3.5 2.5q2 0 3 -1.5t1.5 -3t1.5 -3.5q0 -2 -1.5 -3.5t-3 -3.5t-0.5 -5q6 -1 9.5 2t7.5 7.5t8 6.5q-1 4 0 9q2 1 4.5 1.5t4.5 1.5t3 3q-2 -1 -6 0l-4 2q0 1 2 3q9 19 20 18q1 5 -4 5v1q-1 4 4.5 7.5t11.5 4.5q-2 1 -5 4
q3 7 1.5 16.5t-4 18t-1.5 17t7 11.5q0 11 -1.5 28t-2 26.5t2.5 30.5q0 2 -4 3.5t-4 4.5q1 2 4.5 4.5t3.5 5.5q4 10 5.5 19.5t2.5 22.5t2 19q1 8 12 27.5t9 33.5q15 9 15 32q2 -1 5 -1h4q3 0 5 0.5t4.5 1.5t4 2t3 2.5t2.5 3.5q-1 3 -4 7.5t-4 7.5q7 13 27 32t27 32q4 0 6 1.5
t4 4.5t3 4q54 38 125.5 58.5t147.5 16.5q6 -5 6 -7q1 -1 11.5 -3t16.5 -3q8 -7 30 -13t26 -8q7 -2 15.5 -6t16 -7.5t15.5 -7t16 -6.5l16 -6q4 -1 13 -4.5t14 -5t13 -4.5t13.5 -5.5t13 -5.5t12.5 -6t10.5 -7t10.5 -8q10 -8 18.5 -20t13 -22t11 -25.5t10.5 -24.5
q3 -5 10.5 -18t10.5 -21q-5 3 -8 5t-6 5.5t-5 7.5q-3 -1 -5 0.5t-4 0.5q-2 3 -4 5l-6 6q-2 2 -5 3q7 13 7 18q0 3 -3 3l-9 -3q-2 -1 -5 -2t-6 -1.5t-7 -1.5q-5 5 -12 8.5t-17 7t-14 4.5q-5 2 -16.5 11.5t-19.5 9.5q0 -5 4.5 -6.5t7.5 -0.5q0 -2 -2 -3.5t-1 -4.5q2 -4 6 -6.5
t8 -5.5t7 -6l3 -6q2 -4 2 -6h-8h-10q-28 0 -54 3q-8 1 -17.5 1.5t-18.5 0.5h-20q-88 0 -131 -17q-13 -6 -18 -6q-3 0 -5.5 0.5t-5 1.5t-4.5 1.5t-4 0.5q-4 0 -8 -2.5t-7 -6.5t-5 -10q-3 -9 -5 -16.5t-2 -13.5q0 -23 24 -23q12 0 27 6q32 12 63.5 18t63.5 6q13 0 24 -1
t20.5 -3.5t17.5 -5.5q22 -8 38 -12.5t25 -4.5q19 0 33 7l6 4q0 -3 2 -5.5t4.5 -4t5 -2t6 -2t5.5 -2.5q0 -1 -1 -2.5t-1 -2.5q22 -18 54 -56.5t45 -51.5q2 -6 18 -31t16 -37q0 -5 -5 -15.5t-6 -15.5q-1 -2 -3 -22q-1 -4 -2 -8.5t-1.5 -8.5t-1.5 -8q0 -7 2 -16l4 -18
q2 -9 2 -15q-2 -24 -21.5 -54.5t-21.5 -35.5q-11 -8 -34 -31.5t-40 -31.5q0 -2 -2.5 -5t-3.5 -4q-10 -4 -22 -10.5t-21 -11.5t-22 -8.5t-28 -3.5q-4 -4 -8 -7t-8 -5q-5 2 -11.5 0.5t-10 -3t-8.5 -3.5l-7 -4q-4 -1 -11 -2t-13.5 -1t-13.5 -0.5t-11 -0.5q-67 -8 -158 15
q-7 2 -19 7.5t-15 6.5q-6 2 -13.5 3.5t-12 2.5t-9 4t-6.5 8q-2 0 -5.5 -1.5t-5.5 0.5q-26 17 -57 30q-9 15 -34.5 35.5t-33.5 35.5q-20 10 -42.5 42t-31.5 41q-4 -4 -0.5 -17t-2.5 -18q13 -29 9 -58q9 -4 11 -14t-8 -14q-1 -5 5 -17.5t5 -19.5q6 -2 9.5 0t5.5 7q3 -4 6 -15
t4 -14q4 -1 7 2.5t6 2.5q2 -3 5 -4.5t9 -3.5q-2 -6 4 -9l6 -3q-3 -2 -4 -3q5 1 6.5 0t2.5 -5.5t2 -5.5q2 -2 9 -6.5t10 -9t2 -11.5q6 2 9 7t6 6q3 -6 10.5 -9t11.5 -6q1 1 2 3t2.5 3.5t2.5 3.5t1.5 3.5t0.5 2.5q0 -6 -6 2q-1 1 -1 2q4 5 3 20.5t-1 18.5q7 -3 13.5 -15
t10.5 -15q0 -5 -5 -12.5t-5 -14.5q14 -12 28 -9q6 -3 9.5 -9.5t7 -16t5.5 -13.5h1q4 0 5.5 -0.5t3.5 -1t5 -1.5v-3v-3q0 -1 1 -2q6 -1 11 0.5t8 3t7.5 2.5t9.5 -1q10 10 26 12t30.5 0.5t31.5 0.5q1 4 3 6t4 3l6 1q4 1 7 2q1 -2 0.5 -5.5t0.5 -6.5q1 -1 4 -2q5 -1 5 -4
q16 6 16 12q-1 2 -4 4q1 0 12.5 3.5t18.5 4.5q0 -2 3 -5t1 -8q35 2 52 6q1 -1 1.5 -5t2.5 -5q5 -2 12 2.5t13 3.5q2 -1 2 -4t-0.5 -5.5t-2.5 -3.5q2 -3 12 -1t15 1q4 4 10 6q9 0 17.5 2.5t15 6t12.5 7t12.5 8t11.5 6.5q2 1 4.5 2.5t4 2t3.5 1.5l4 2q2 1 4 3l2 2
q26 20 67 65.5t56 60.5q3 7 8 13t12.5 12.5t10.5 10.5q2 -1 5 -4.5t5 -1.5q5 3 6 12t3.5 15.5t10.5 6.5q6 -1 8.5 -8t1.5 -16t0 -17q0 -3 1.5 -7.5t3 -8.5t1.5 -7t-0.5 -6.5t-1 -6t-0.5 -5t0.5 -4.5t2.5 -3q15 7 21 39q5 21 7 67t2 50q0 2 1.5 6t1.5 5q0 4 -2 11.5t-3 11.5
q0 8 11 33.5t3 40.5zM900 384q-9 4 -18 17.5t-15 18.5q-4 7 -10 14t-13 13t-13.5 11.5t-14 11.5t-12.5 12q-2 0 -4.5 1t-4.5 0q-7 6 -13.5 11.5t-14.5 10.5q6 7 13 17q2 -1 3 -3q2 -3 5.5 -8t6.5 -9.5t7 -7.5q3 -2 6.5 -3.5t7.5 -3.5t7 -4q5 -3 10.5 -10.5t11 -14t10.5 -9.5
q19 -29 43 -42q7 -15 2 -23zM164 40q-3 1 -4.5 -1.5t-4.5 -2.5q-2 2 -3 5.5t-1 4.5q1 1 5.5 0.5t7.5 0.5q-1 -3 0 -7zM285 -5q-1 0 -3.5 1.5t-5.5 0.5l-3 6q3 2 0 4t-3 4q2 1 11 -3q-2 -2 1.5 -5t2.5 -8zM425 -88zM453 -88q1 3 -1 4q1 6 7 0q-2 -5 -6 -4zM707 87q3 -5 9 -3
t5 9q-2 1 -4.5 1t-4.5 -0.5t-3.5 -2t-1.5 -4.5zM829 168q-2 0 -4.5 -1.5t-3.5 -1.5q0 -1 1 -2.5t1 -3.5h6q1 2 1 4.5t-1 4.5zM863 121q-4 -4 0 -7h6q0 3 -1.5 4.5t-4.5 2.5zM923 7q18 -2 28 7q-6 3 -14.5 0.5t-13.5 -7.5zM378 638q7 1 9 3q-4 6 -8 0q-1 -1 -1 -3zM174 244v4
q-2 -1 -4 0.5t-3 0.5q-1 -3 2 -5t5 0zM332 629q-6 0 -13 -4.5t-10 -5.5q4 -1 9 -0.5t9 3.5t5 7zM189 135q0 -7 5 -13t15 -11t21 -8t24 -3q8 0 17 2.5t18 7.5t19 13q30 23 42.5 77t12.5 109l-2 53q0 41 4 97q1 27 2.5 44t3 23.5t2 12t0.5 9.5q0 20 -12.5 20t-24 -12.5
t-11.5 -38.5q0 -4 0.5 -10t2.5 -14q3 -14 3 -91v-8q-2 -4 0 -8q0 -65 -4 -99q-2 -18 -6.5 -34t-10.5 -29q-13 -27 -29 -37q-8 -5 -21.5 -10.5t-32.5 -10.5q-38 -11 -38 -31zM281 464q1 5 1 12q0 21 -8 40.5t-23 19.5t-30.5 -14.5t-15.5 -39.5q0 -13 4 -27t12 -30
q6 -10 6 -57q0 -24 -2 -43.5t-2 -41t6 -40.5q3 -10 6 -14.5t7 -4.5q7 0 18 30t11 72l-2 41q0 21 3 50q2 15 4 26.5t5 20.5zM417 199q0 -6 0.5 -11t0.5 -9t0.5 -7t1.5 -5q2 -7 9 -7q8 1 20 10q14 10 19 21q2 5 4 17t3 30q1 12 1.5 25.5t1 28.5t1.5 31q0 2 0.5 4t0.5 4
q8 3 14 9t10 14q2 1 3 1q13 4 22.5 5.5t14.5 1.5q2 0 4.5 -1t4.5 -3t3 -5l4 -7q5 -17 5 -40v-4v-4v-6q0 -2 -0.5 -4.5t-0.5 -5t-0.5 -5t-0.5 -5.5t-1 -6v-4l-2 -6q-2 -14 -3.5 -35t-1.5 -49q0 -56 2.5 -72.5t10.5 -16.5q2 0 5.5 0.5t8.5 2.5t11 4q17 8 23.5 18.5t6.5 26
t-3 35.5q-5 52 -8 86.5t-3 51.5q0 33 3 45q2 6 4.5 9.5t6 5.5t14 3t28 1t27 -2.5t11.5 -7.5q5 -9 5 -44q0 -17 0.5 -32t1.5 -29t2.5 -26t3.5 -23q9 -44 23 -44q4 0 7.5 4t7.5 12q6 15 6 38.5t-4 59.5q-1 12 -2 22.5t-1.5 20.5t-0.5 18q0 26 11 47q5 11 8 20.5t3 18.5
q0 23 -17 23q-10 0 -19 -7.5t-17.5 -7.5t-24 4.5t-44.5 5.5t-39 17q-15 24 -30.5 24t-24.5 -29q-5 -15 -31 -18.5t-45 -9t-26 -5.5h-11q-2 1 -4 1h-3q-21 0 -21 -35q0 -19 8 -36.5t8 -31.5q0 -17 -11 -72q-5 -24 -5 -49zM458 -134h3v1h-1v4v-4h-2v3h-1v-6v-4v-1q1 2 1 5h2
v-5v5h-2v2zM468 -134v1h-5v2h5v1h-6v-5q0 -2 -0.5 -3t-0.5 -2v-1q2 2 2 5v2q1 -3 2 -4q-1 -1 -3 -2l1 -1l2 2q1 0 1 -1l2 -1v1l-2 2q1 1 2 4zM464 -134h3l-2 -4q-1 2 -1 4zM474 -136l-2 2v1h1v1h-1v3h-1v-3h-2v-1h2q-1 -1 -1.5 -2t-0.5 -2v-1q1 1 1 1.5t1 1.5v-6h1v6l1 -1h1
zM480 -131v1h-7v-1h1q0 -4 2 -7q-1 -1 -4 -2l1 -1q2 1 4 3q1 -2 3 -3q0 1 1 1l-4 2q2 3 3 7zM475 -131h4q-1 -4 -2 -6q-1 1 -1.5 2.5t-0.5 3.5zM487 -133h-1v-1h1h1v1h-1zM487 -138h-1v-1v-1h1h1v1v1h-1zM500 -138v0v0l-2 5h-1l-1 -5v0l-2 5h-1l2 -6h1l2 4v1v-1l1 -4h1l2 6
h-1zM510 -138v0h-1v0l-1 5h-1l-2 -5v0v0l-1 5h-1l2 -6h1l1 4v1q0 -1 1 -1l1 -4h1l2 6h-1zM523 -138h-1v-1v-1h1v1v1zM528 -130l-3 -1v-1l2 1v-7h-2v-1h5v1h-2v8zM532 -135h4v-1h-4v1zM541 -135q1 1 1 3q0 1 -0.5 1.5t-1.5 0.5l-2 -1v-1v1h2q1 0 1 -1.5t-2 -1.5h-1v-1h1
q3 0 3 -2v-1h-1q-1 -1 -2 -1t-2 1v-1q2 0 2 -1l3 1q1 1 1 2l-1 2h-1zM545 -135h3v-1h-3v1zM549 -131h5l-3 -8h1l3 8v1h-6v-1zM558 -138h-1v-1v-1h1v1v1v0zM560.5 -134q-0.5 -1 -0.5 -2v-3q1 -1 3 -1q1 0 2 1v1q-1 -1 -2 -1t-1.5 1t-0.5 2v2h1h1h2v1h-2q-2 0 -2.5 -1z
M569 -133l-2 -1q-1 -1 -1 -2.5t1 -2.5l2 -1q1 0 2 1t1 3l-1 2q0 1 -1 1h-1zM570.5 -138q-0.5 -1 -1.5 -1t-2 1v2v2h1h1h1q1 -1 1 -2t-0.5 -2zM581 -133q-1 0 -2 -1q0 1 -1 1h-1q-1 0 -2 -1v1h-1v-6h1v3v2h2q1 0 1 -2v-3h1v3v1l1 1h1h1v-2v-3h1v4q0 2 -2 2z" />
    <glyph glyph-name="uniE623" unicode="&#xe623;" horiz-adv-x="1000" 
d="M438 800v-250h-102l164 -189l166 189h-104v250h-124zM62 729q-13 0 -23.5 -5t-19.5 -16q-19 -21 -19 -51v-643q0 -29 18.5 -50t43.5 -21h875q26 0 44.5 21t18.5 50v643q0 30 -18.5 51t-44.5 21h-312v-108h281q13 0 22 -10t9 -25v-500q0 -15 -9 -25.5t-22 -10.5h-812
q-13 0 -22.5 10.5t-9.5 25.5v500q0 15 9.5 25t22.5 10h281v108h-313zM344 -200h312l-31 71q-3 9 -14 22.5t-22 13.5h-179q-5 0 -10.5 -3t-10.5 -10q-10 -13 -14 -23zM344 -200z" />
    <glyph glyph-name="uniE624" unicode="&#xe624;" 
d="M736 80h-448q-6 0 -11.5 -3t-8.5 -8t-3 -11q0 -10 6.5 -16.5t16.5 -6.5h448q6 0 11.5 3t8.5 8t3 12q-6 18 -23 22zM265 383q0 -9 6.5 -16t16.5 -7h448q5 0 9 2t7 5t5 7t2 9q0 9 -6.5 16t-16.5 7h-448q-5 0 -9 -2t-7 -5t-5 -7t-2 -9zM940 512l-280 278q-5 6 -12 9t-15 3
h-457q-21 0 -40 -8t-32 -22q-31 -34 -31 -74v-796q0 -44 31 -73q30 -31 71 -31h672q42 0 71 30v1q15 14 23 33t8 40v582q3 13 -9 28zM656 686l178 -178h-137q-16 0 -29 12v1q-12 9 -12 28v137zM874 -98q0 -12 -8 -18q-2 -2 -4 -3.5t-4 -2.5h-6q-2 -1 -4 -1h-672q-11 0 -18 7
q-7 8 -8 18v796q0 12 8 18q8 8 18 8h434v-176q0 -35 24 -60l1 -1q3 -4 7 -7t8 -5.5t8.5 -5t9 -4t9 -2.5t9.5 -2t10 -1h177v-558h1zM736 243h-448q-5 0 -9 -2t-7 -5t-5 -7t-2 -9q0 -9 6.5 -15.5t16.5 -6.5h448q6 0 11.5 3t8.5 8t3 11q0 17 -17 22q-3 1 -6 1z" />
    <glyph glyph-name="uniE625" unicode="&#xe625;" 
d="M997 542l-485 -485l-485 486z" />
    <glyph glyph-name="uniE626" unicode="&#xe626;" 
d="M388 443q0 15 10 25t24 10h258q14 0 24 -10t10 -25q0 -14 -10 -24t-24 -10h-258q-14 0 -24 10t-10 24v0zM388 443zM268 441q0 16 10.5 26.5t25.5 10.5h1q15 0 25.5 -10.5t10.5 -26.5q0 -7 -2.5 -14t-7.5 -11.5t-12 -7.5t-14 -3h-1q-15 0 -25.5 10.5t-10.5 25.5v0z
M268 441zM494 297q0 14 10.5 24t24.5 10h257q15 0 25 -10t10 -24q0 -15 -10 -25t-25 -10h-257q-7 0 -13.5 2.5t-11 7.5t-7.5 11.5t-3 13.5v0zM494 297zM374 295q0 15 11 25.5t26 10.5q10 0 18.5 -4.5t13.5 -13t5 -18.5q0 -15 -10.5 -26t-26.5 -11q-26 0 -35 24q-2 7 -2 13v0
zM374 295zM318 137q0 9 4.5 17t12.5 12.5t17 4.5h258q9 0 17 -4.5t12.5 -12.5t4.5 -17q0 -15 -10 -25t-24 -10h-258q-14 0 -24 10t-10 25v0zM318 137zM198 135q0 15 10.5 25.5t25.5 10.5h1q10 0 18.5 -4.5t13 -13t4.5 -18.5q0 -15 -10.5 -26t-25.5 -11h-1q-15 0 -25.5 11
t-10.5 26v0zM198 135zM898 580h-777q-22 0 -37 -15t-15 -36v-482q0 -21 15 -36t37 -15h777q14 0 26 7t18.5 18.5t6.5 25.5v482q0 21 -15 36t-36 15zM922 48q0 -11 -7.5 -18.5t-17.5 -7.5h-775q-4 0 -8 1.5t-7 3.5t-5.5 5.5t-4 7.5t-1.5 8v480q0 11 7.5 18.5t18.5 7.5h775
q10 0 17.5 -7.5t7.5 -18.5v-480z" />
    <glyph glyph-name="uniE627" unicode="&#xe627;" 
d="M512 300zM894 -2h-765q-22 0 -38 16t-16 38v492q0 23 16 39t38 16h765q23 0 39 -16t16 -39v-492q0 -34 -31 -49q-12 -5 -24 -5zM129 571q-11 0 -19 -8t-8 -19v-492q0 -11 8 -19t19 -8h765q12 0 20 8t8 19v492q0 8 -4 14t-10 9.5t-14 3.5h-765zM512 107q-79 0 -135 56
t-56 135t56 135t135 56t135 -56t56 -135t-56 -135t-135 -56zM512 462q-68 0 -116 -48t-48 -116t48 -116t116 -48t116 48t48 116t-48 116t-116 48zM401 168l-20 19l242 242l19 -20zM894 -2h-765q-22 0 -38 16t-16 38v492q0 23 16 39t38 16h765q23 0 39 -16t16 -39v-492
q0 -34 -31 -49q-12 -5 -24 -5zM129 571q-11 0 -19 -8t-8 -19v-492q0 -11 8 -19t19 -8h765q12 0 20 8t8 19v492q0 8 -4 14t-10 9.5t-14 3.5h-765z" />
    <glyph glyph-name="uniE628" unicode="&#xe628;" horiz-adv-x="2011" 
d="M1972 896h-1934q-16 0 -27 -11t-11 -27v-948q0 -16 11 -27t27 -11h1934q16 0 27 11t11 27v948q0 10 -5 19t-14 14t-19 5zM1972 -75q0 -5 -2.5 -10t-7 -7.5t-10.5 -2.5h-1894q-4 0 -8 1.5t-6.5 4.5t-4 6.5t-1.5 7.5v909q0 5 2.5 9.5t7 7t10.5 2.5h1894q6 0 10.5 -2.5t7 -7
t2.5 -9.5v-909zM256 613h139v-152h-101l-11 -95h108q0 -18 -0.5 -34.5t-1.5 -31.5t-2 -28.5t-2 -25.5t-2 -23q-4 -73 -77 -66q-16 -2 -41 -2q0 7 -1.5 14.5t-4.5 16.5q16 -2 45 -2q50 -2 52 41q2 25 3.5 54t2.5 62h-108l15 145h99v102h-112v25zM416 273h150v68h-123v218h162
q2 3 4.5 6.5t6 8t7.5 10.5t9 12q22 33 31 46l25 -15q-12 -17 -25 -34t-27 -34h79v-218h-123v-68h150v-25h-150v-102h-26v102h-150v25zM470 536v-72h96v72h-96zM470 439v-75h96v75h-96zM474 625l21 15q4 -4 10 -13q17 -17 27.5 -29t14.5 -18l-23 -17q-6 8 -27 33q-2 3 -4 5.5
t-3.5 4.5t-3.5 4t-3 4t-2.5 3.5t-2.5 3t-2 2.5zM688 536h-96v-72h96v72zM592 439v-75h96v75h-96zM1279 244q-5 1 -19 6q-22 7 -51 17v-46q2 -37 -50 -40h-52l-4 25h50h2h2h2q6 0 11 2q15 4 14 21v35h-129v-120h-25v120h-128v-87h-27v92q-3 -2 -5 -3l-5 -2l-6 -4q-3 -1 -7 -2
l-6 -4q-4 -1 -8.5 -2.5t-8.5 -3.5q-15 -6 -23 -8q-3 6 -6.5 12t-7.5 12q95 32 151 77h-135v23h162q19 19 33 37h-139v141h357v-141h-189q-12 -18 -29 -37h276v-23h-153v-1h1l1 -1h1v-1l1 -1h1l1 -1v-1h1l1 -1l1 -1l1 -1h1l1 -1v-1h1l1 -1h1l1 -1v-1h1l1 -1h1v-1h1l1 -1l1 -1
h1v-1h1l1 -1h1l1 -1l1 -1l1 -1h1l1 -1l1 -1h1l1 -1h1l1 -1l1 -1h1l1 -1h1l1 -1l1 -1h1h1l1 -1h1v-1h1l1 -1h1l1 -1h1v-1h1h1l1 -1h1l1 -1h1v-1h1h1l1 -1h1l1 -1h1h1v-1h1l1 -1h1h1l1 -1h1l1 -1h1l1 -1h1h1l1 -1h1l1 -1h1l1 -1h1h1l1 -1h1h1l1 -1h1h1v-1h1h1l1 -1h1h1l1 -1h1
h1h1l1 -1h1l1 -1h1h1l1 -1h1h1h1l1 -1h1h1h1l1 -1h1h1l1 -1h1h1l1 -1h1h1h1h1l1 -1h1h1h1l1 -1h1h1h1l1 -1h1h1h1l1 -1h1h1h1h1l1 -1h1h1h1h1l1 -1h1h1h1h1h1l1 -1h1h1h1h1h1l1 -1h1h1h1h1h1l1 -1h1h1h1h1h2q-2 -1 -3 -3l-2 -4q-6 -8 -10 -20zM1107 642h27v-35h149v-23h-149
v-29h-27v29h-127v-29h-27v29h-149v23h149v35h27v-35h127v35zM891 520v-38h303v38h-303zM891 461v-37h303v37h-303zM1030 325h25v-38h108q-37 21 -69 54h-112q-31 -29 -74 -54h122v38zM1820 464q-2 3 -5.5 4.5t-7.5 1.5t-7.5 -1.5t-5.5 -4.5l-237 -236l-121 121q-3 4 -8 5.5
t-10 0t-9 -5.5q-5 -5 -5 -13t5 -13l133 -133l1 -1q0 -1 1 -1q5 -6 14 -6q8 0 13 6q1 0 1.5 0.5t0.5 1.5l247 247q6 6 6 14t-6 13z" />
    <glyph glyph-name="uniE629" unicode="&#xe629;" horiz-adv-x="2011" 
d="M1972 896h-1934q-16 0 -27 -11t-11 -27v-948q0 -16 11 -27t27 -11h1934q16 0 27 11t11 27v948q0 10 -5 19t-14 14t-19 5zM1972 -75q0 -5 -2.5 -10t-7 -7.5t-10.5 -2.5h-1894q-4 0 -8 1.5t-6.5 4.5t-4 6.5t-1.5 7.5v909q0 5 2.5 9.5t7 7t10.5 2.5h1894q6 0 10.5 -2.5t7 -7
t2.5 -9.5v-909zM256 613h139v-152h-101l-11 -95h108q0 -18 -0.5 -34.5t-1.5 -31.5t-2 -28.5t-2 -25.5t-2 -23q-4 -73 -77 -66q-16 -2 -41 -2q0 7 -1.5 14.5t-4.5 16.5q16 -2 45 -2q50 -2 52 41q2 25 3.5 54t2.5 62h-108l15 145h99v102h-112v25zM416 273h150v68h-123v218h162
q2 3 4.5 6.5t6 8t7.5 10.5t9 12q22 33 31 46l25 -15q-12 -17 -25 -34t-27 -34h79v-218h-123v-68h150v-25h-150v-102h-26v102h-150v25zM470 536v-72h96v72h-96zM470 439v-75h96v75h-96zM474 625l21 15q4 -4 10 -13q17 -17 27.5 -29t14.5 -18l-23 -17q-6 8 -27 33q-2 3 -4 5.5
t-3.5 4.5t-3.5 4t-3 4t-2.5 3.5t-2.5 3t-2 2.5zM688 536h-96v-72h96v72zM592 439v-75h96v75h-96zM1279 244q-5 1 -19 6q-22 7 -51 17v-46q2 -37 -50 -40h-52l-4 25h50h2h2h2q6 0 11 2q15 4 14 21v35h-129v-120h-25v120h-128v-87h-27v92q-3 -2 -5 -3l-5 -2l-6 -4q-3 -1 -7 -2
l-6 -4q-4 -1 -8.5 -2.5t-8.5 -3.5q-15 -6 -23 -8q-3 6 -6.5 12t-7.5 12q95 32 151 77h-135v23h162q19 19 33 37h-139v141h357v-141h-189q-12 -18 -29 -37h276v-23h-153v-1h1l1 -1h1v-1l1 -1h1l1 -1v-1h1l1 -1l1 -1l1 -1h1l1 -1v-1h1l1 -1h1l1 -1v-1h1l1 -1h1v-1h1l1 -1l1 -1
h1v-1h1l1 -1h1l1 -1l1 -1l1 -1h1l1 -1l1 -1h1l1 -1h1l1 -1l1 -1h1l1 -1h1l1 -1l1 -1h1h1l1 -1h1v-1h1l1 -1h1l1 -1h1v-1h1h1l1 -1h1l1 -1h1v-1h1h1l1 -1h1l1 -1h1h1v-1h1l1 -1h1h1l1 -1h1l1 -1h1l1 -1h1h1l1 -1h1l1 -1h1l1 -1h1h1l1 -1h1h1l1 -1h1h1v-1h1h1l1 -1h1h1l1 -1h1
h1h1l1 -1h1l1 -1h1h1l1 -1h1h1h1l1 -1h1h1h1l1 -1h1h1l1 -1h1h1l1 -1h1h1h1h1l1 -1h1h1h1l1 -1h1h1h1l1 -1h1h1h1l1 -1h1h1h1h1l1 -1h1h1h1h1l1 -1h1h1h1h1h1l1 -1h1h1h1h1h1l1 -1h1h1h1h1h1l1 -1h1h1h1h1h2q-2 -1 -3 -3l-2 -4q-6 -8 -10 -20zM1107 642h27v-35h149v-23h-149
v-29h-27v29h-127v-29h-27v29h-149v23h149v35h27v-35h127v35zM891 520v-38h303v38h-303zM891 461v-37h303v37h-303zM1030 325h25v-38h108q-37 21 -69 54h-112q-31 -29 -74 -54h122v38zM1639 357l140 141q6 5 6 13t-6 14q-2 2 -5.5 3.5t-7.5 1.5t-7.5 -1.5t-5.5 -3.5
l-141 -141l-141 141q-2 2 -5 3.5t-5.5 2t-5.5 0t-6 -2t-5 -3.5q-5 -6 -5 -14t5 -13l141 -141l-141 -141q-5 -5 -5 -13t5.5 -13.5t13.5 -5.5t13 6l141 140l141 -140q5 -6 13 -6t13.5 5.5t5.5 13.5t-6 13z" />
    <glyph glyph-name="uniE62A" unicode="&#xe62a;" 
d="M992 768h-256h-448h-256v64h256v64h448v-64h256v-64zM928 0q0 -53 -37.5 -90.5t-90.5 -37.5h-576q-53 0 -90.5 37.5t-37.5 90.5v512v128v64h832v-704zM352 512h-64v-448h64v448zM544 576h-64v-576h64v576zM736 512h-64v-448h64v448z" />
    <glyph glyph-name="uniE62B" unicode="&#xe62b;" 
d="M517 738q9 -9 19 -27q76 -129 143 -248q9 -15 26 -18q161 -30 265 -49q6 -1 11 -3t7.5 -4t3.5 -4q1 -4 -2 -8q-21 -23 -49 -54.5t-53 -59t-49 -53t-36.5 -39t-14.5 -15.5q-12 -13 -10 -31q1 0 1 -2q2 -16 4.5 -35t8 -59.5t10.5 -82t9 -74.5q1 -5 0.5 -9t-1.5 -6l-2 -4
q-2 -2 -8 -2q-8 0 -17 4q-86 41 -248 118l-1 1l-8 2q-4 1 -8 1q-9 0 -16 -3q-25 -12 -252 -118q-9 -4 -17 -4q-3 0 -5.5 0.5t-3.5 2.5q-5 5 -3 17q16 142 33 254v6q0 4 -1 7.5t-2 6.5t-3 6t-4 5q-137 145 -204 220q-4 5 -2 8q3 9 23 12l268 48q5 1 10 3.5t9 6.5t6 8
q106 183 146 248v1v1q9 16 17 25zM518 781q-24 0 -51 -50l-145 -249q-163 -30 -268 -48q-25 -4 -39.5 -18t-14.5 -30.5t12 -33.5q33 -37 84 -92t86 -92l35 -37q-22 -151 -34 -254q-3 -29 11.5 -45.5t38.5 -16.5q16 0 32 7q202 94 253 118q169 -81 249 -119q17 -8 33 -8
q24 0 37.5 17t11.5 46q-12 103 -33 254q129 139 202 222q12 16 12 32.5t-14.5 30.5t-39.5 18q-46 9 -112 21t-109 20l-44 8q-88 154 -143 248q-14 24 -25 35.5t-19 14.5q-3 1 -6 1z" />
  </font>
</defs>
</svg>
